<?xml version="1.0" encoding="UTF-8" standalone="no"?>
<!-- Created with Inkscape (http://www.inkscape.org/) -->

<svg
   xmlns:dc="http://purl.org/dc/elements/1.1/"
   xmlns:cc="http://creativecommons.org/ns#"
   xmlns:rdf="http://www.w3.org/1999/02/22-rdf-syntax-ns#"
   xmlns:svg="http://www.w3.org/2000/svg"
   xmlns="http://www.w3.org/2000/svg"
   xmlns:sodipodi="http://sodipodi.sourceforge.net/DTD/sodipodi-0.dtd"
   xmlns:inkscape="http://www.inkscape.org/namespaces/inkscape"
   width="323.53915"
   height="263.54364"
   id="svg2"
   version="1.1"
   inkscape:version="0.48.4 r9939"
   sodipodi:docname="visualhull.svg">
  <defs
     id="defs4" />
  <sodipodi:namedview
     id="base"
     pagecolor="#ffffff"
     bordercolor="#666666"
     borderopacity="1.0"
     inkscape:pageopacity="0.0"
     inkscape:pageshadow="2"
     inkscape:zoom="1.765281"
     inkscape:cx="116.05051"
     inkscape:cy="50.679046"
     inkscape:document-units="px"
     inkscape:current-layer="layer1"
     showgrid="false"
     inkscape:window-width="1869"
     inkscape:window-height="1056"
     inkscape:window-x="1971"
     inkscape:window-y="24"
     inkscape:window-maximized="1"
     fit-margin-top="0"
     fit-margin-left="0"
     fit-margin-right="0"
     fit-margin-bottom="0" />
  <metadata
     id="metadata7">
    <rdf:RDF>
      <cc:Work
         rdf:about="">
        <dc:format>image/svg+xml</dc:format>
        <dc:type
           rdf:resource="http://purl.org/dc/dcmitype/StillImage" />
        <dc:title></dc:title>
      </cc:Work>
    </rdf:RDF>
  </metadata>
  <g
     inkscape:label="Livello 1"
     inkscape:groupmode="layer"
     id="layer1"
     transform="translate(-209.57043,-157.49199)">
    <path
       style="opacity:0.46899229;fill:#00e428;fill-opacity:1;stroke:none"
       d="M 501.92238,136.02282 630.04215,164.8176 538.29383,289.28586 224.44139,331.56664"
       id="path4050"
       inkscape:connector-curvature="0"
       sodipodi:nodetypes="cccc" />
    <path
       style="fill:#f6c5cf;fill-opacity:1;stroke:#000000;stroke-width:1;stroke-linecap:butt;stroke-linejoin:miter;stroke-miterlimit:4;stroke-opacity:1;stroke-dasharray:none"
       d="m 375.21164,292.21928 c 8.62048,-5.60815 74.11898,21.00253 42.87416,-22.7675 -31.24483,-43.77004 -104.6058,-14.74167 -105.57579,11.28925 -0.96997,26.03092 19.84771,42.84868 38.75516,32.6913 15.031,-8.07489 7.45216,-10.48249 23.94647,-21.21305 z"
       id="path5931-5-1"
       inkscape:connector-curvature="0"
       sodipodi:nodetypes="szsss" />
    <path
       sodipodi:type="arc"
       style="fill:#ea4545;fill-opacity:0.55744683;stroke:#000000;stroke-width:3;stroke-linecap:butt;stroke-linejoin:round;stroke-miterlimit:4;stroke-opacity:1;stroke-dasharray:none;stroke-dashoffset:0"
       id="path3824-4-3-1-2-3"
       sodipodi:cx="317.14285"
       sodipodi:cy="41.647896"
       sodipodi:rx="2.1428571"
       sodipodi:ry="2.1428571"
       d="m 319.28571,41.647896 c 0,1.183467 -0.95939,2.142857 -2.14286,2.142857 -1.18346,0 -2.14285,-0.95939 -2.14285,-2.142857 0,-1.183467 0.95939,-2.142857 2.14285,-2.142857 1.18347,0 2.14286,0.95939 2.14286,2.142857 z"
       transform="matrix(0.28807079,-0.05713461,0.05713461,0.28807079,424.47163,370.37835)" />
    <rect
       style="fill:#ea4545;fill-opacity:0.55744683;stroke:#000000;stroke-width:0.80000025;stroke-linecap:square;stroke-linejoin:round;stroke-miterlimit:4;stroke-opacity:1;stroke-dasharray:none;stroke-dashoffset:0"
       id="rect2985-2-9-4-6"
       width="18.523724"
       height="22.540323"
       x="-24.749376"
       y="621.89441"
       transform="matrix(0.55573457,-0.83135978,0.83197615,0.5548114,0,0)" />
    <path
       style="fill:#ea4545;fill-opacity:0.55744683;stroke:#000000;stroke-width:0.70869321;stroke-linecap:butt;stroke-linejoin:round;stroke-miterlimit:4;stroke-opacity:1;stroke-dasharray:none"
       d="m 488.12379,360.55746 15.29793,-22.97761 8.44799,15.74644 -5.89453,8.85358 z"
       id="path3759-1-5-0-9"
       inkscape:connector-curvature="0"
       sodipodi:nodetypes="ccccc" />
    <path
       sodipodi:type="arc"
       style="fill:#ea4545;fill-opacity:0.55744683;stroke:#000000;stroke-width:3;stroke-linecap:butt;stroke-linejoin:round;stroke-miterlimit:4;stroke-opacity:1;stroke-dasharray:none;stroke-dashoffset:0"
       id="path3824-4-3-1-2-3-0"
       sodipodi:cx="317.14285"
       sodipodi:cy="41.647896"
       sodipodi:rx="2.1428571"
       sodipodi:ry="2.1428571"
       d="m 319.28571,41.647896 c 0,1.183467 -0.95939,2.142857 -2.14286,2.142857 -1.18346,0 -2.14285,-0.95939 -2.14285,-2.142857 0,-1.183467 0.95939,-2.142857 2.14285,-2.142857 1.18347,0 2.14286,0.95939 2.14286,2.142857 z"
       transform="matrix(0.16267296,-0.24451309,0.24451309,0.16267296,457.50652,326.78132)" />
    <rect
       style="fill:#ea4545;fill-opacity:0.55744683;stroke:#000000;stroke-width:0.80000025;stroke-linecap:square;stroke-linejoin:round;stroke-miterlimit:4;stroke-opacity:1;stroke-dasharray:none;stroke-dashoffset:0"
       id="rect2985-2-9-4-6-1"
       width="18.523724"
       height="22.540323"
       x="-363.19409"
       y="447.17145"
       transform="matrix(-0.19739933,-0.98032316,0.98010344,-0.19848739,0,0)" />
    <path
       style="fill:#ea4545;fill-opacity:0.55744683;stroke:#000000;stroke-width:0.70869321;stroke-linecap:butt;stroke-linejoin:round;stroke-miterlimit:4;stroke-opacity:1;stroke-dasharray:none"
       d="m 495.43825,274.73104 -5.49942,-27.05094 17.12116,5.1171 2.11898,10.42311 z"
       id="path3759-1-5-0-9-0"
       inkscape:connector-curvature="0"
       sodipodi:nodetypes="ccccc" />
    <path
       sodipodi:type="arc"
       style="fill:#ea4545;fill-opacity:0.55744683;stroke:#000000;stroke-width:3;stroke-linecap:butt;stroke-linejoin:round;stroke-miterlimit:4;stroke-opacity:1;stroke-dasharray:none;stroke-dashoffset:0"
       id="path3824-4-3-1-2-3-1"
       sodipodi:cx="317.14285"
       sodipodi:cy="41.647896"
       sodipodi:rx="2.1428571"
       sodipodi:ry="2.1428571"
       d="m 319.28571,41.647896 c 0,1.183467 -0.95939,2.142857 -2.14286,2.142857 -1.18346,0 -2.14285,-0.95939 -2.14285,-2.142857 0,-1.183467 0.95939,-2.142857 2.14285,-2.142857 1.18347,0 2.14286,0.95939 2.14286,2.142857 z"
       transform="matrix(-0.08804481,-0.28017362,0.28017362,-0.08804481,434.72372,264.64272)" />
    <rect
       style="fill:#ea4545;fill-opacity:0.55744683;stroke:#000000;stroke-width:0.80000025;stroke-linecap:square;stroke-linejoin:round;stroke-miterlimit:4;stroke-opacity:1;stroke-dasharray:none;stroke-dashoffset:0"
       id="rect2985-2-9-4-6-4"
       width="18.523724"
       height="22.540323"
       x="-459.8909"
       y="29.468077"
       transform="matrix(-0.88673551,-0.46227712,0.46129254,-0.8872481,0,0)" />
    <path
       style="fill:#ea4545;fill-opacity:0.55744683;stroke:#000000;stroke-width:0.70869321;stroke-linecap:butt;stroke-linejoin:round;stroke-miterlimit:4;stroke-opacity:1;stroke-dasharray:none"
       d="m 418.05637,202.43142 -24.50142,-12.71527 14.73717,-10.10617 9.44073,4.89939 z"
       id="path3759-1-5-0-9-6"
       inkscape:connector-curvature="0"
       sodipodi:nodetypes="ccccc" />
    <path
       sodipodi:type="arc"
       style="fill:#ea4545;fill-opacity:0.55744683;stroke:#000000;stroke-width:3;stroke-linecap:butt;stroke-linejoin:round;stroke-miterlimit:4;stroke-opacity:1;stroke-dasharray:none;stroke-dashoffset:0"
       id="path3824-4-3-1-2-3-2"
       sodipodi:cx="317.14285"
       sodipodi:cy="41.647896"
       sodipodi:rx="2.1428571"
       sodipodi:ry="2.1428571"
       d="m 319.28571,41.647896 c 0,1.183467 -0.95939,2.142857 -2.14286,2.142857 -1.18346,0 -2.14285,-0.95939 -2.14285,-2.142857 0,-1.183467 0.95939,-2.142857 2.14285,-2.142857 1.18347,0 2.14286,0.95939 2.14286,2.142857 z"
       transform="matrix(-0.28994428,0.04670607,-0.04670607,-0.28994428,336.17416,191.54068)" />
    <rect
       style="fill:#ea4545;fill-opacity:0.55744683;stroke:#000000;stroke-width:0.80000025;stroke-linecap:square;stroke-linejoin:round;stroke-miterlimit:4;stroke-opacity:1;stroke-dasharray:none;stroke-dashoffset:0"
       id="rect2985-2-9-4-6-3"
       width="18.523724"
       height="22.540323"
       x="6.8342276"
       y="-321.50815"
       transform="matrix(-0.5853619,0.81077213,-0.8114214,-0.58446156,0,0)" />
    <path
       style="fill:#ea4545;fill-opacity:0.55744683;stroke:#000000;stroke-width:0.70869321;stroke-linecap:butt;stroke-linejoin:round;stroke-miterlimit:4;stroke-opacity:1;stroke-dasharray:none"
       d="m 272.20917,199.0591 -16.11683,22.41083 -7.87448,-16.04093 6.21006,-8.63519 z"
       id="path3759-1-5-0-9-3"
       inkscape:connector-curvature="0"
       sodipodi:nodetypes="ccccc" />
    <path
       sodipodi:type="arc"
       style="fill:#ea4545;fill-opacity:0.55744683;stroke:#000000;stroke-width:3;stroke-linecap:butt;stroke-linejoin:round;stroke-miterlimit:4;stroke-opacity:1;stroke-dasharray:none;stroke-dashoffset:0"
       id="path3824-4-3-1-2-3-4"
       sodipodi:cx="317.14285"
       sodipodi:cy="41.647896"
       sodipodi:rx="2.1428571"
       sodipodi:ry="2.1428571"
       d="m 319.28571,41.647896 c 0,1.183467 -0.95939,2.142857 -2.14286,2.142857 -1.18346,0 -2.14285,-0.95939 -2.14285,-2.142857 0,-1.183467 0.95939,-2.142857 2.14285,-2.142857 1.18347,0 2.14286,0.95939 2.14286,2.142857 z"
       transform="matrix(-0.06996492,0.28522632,-0.28522632,-0.06996492,258.38372,244.07279)" />
    <rect
       style="fill:#ea4545;fill-opacity:0.55744683;stroke:#000000;stroke-width:0.80000025;stroke-linecap:square;stroke-linejoin:round;stroke-miterlimit:4;stroke-opacity:1;stroke-dasharray:none;stroke-dashoffset:0"
       id="rect2985-2-9-4-6-41"
       width="18.523724"
       height="22.540323"
       x="390.68347"
       y="-31.174282"
       transform="matrix(0.51859682,0.85501891,-0.85444273,0.5195456,0,0)" />
    <path
       style="fill:#ea4545;fill-opacity:0.55744683;stroke:#000000;stroke-width:0.70869321;stroke-linecap:butt;stroke-linejoin:round;stroke-miterlimit:4;stroke-opacity:1;stroke-dasharray:none"
       d="m 240.38336,305.91156 14.3594,23.57552 -17.8414,1.00159 -5.53286,-9.08399 z"
       id="path3759-1-5-0-9-30"
       inkscape:connector-curvature="0"
       sodipodi:nodetypes="ccccc" />
    <path
       sodipodi:type="arc"
       style="fill:#ea4545;fill-opacity:0.55744683;stroke:#000000;stroke-width:3;stroke-linecap:butt;stroke-linejoin:round;stroke-miterlimit:4;stroke-opacity:1;stroke-dasharray:none;stroke-dashoffset:0"
       id="path3824-4-3-1-2-3-9"
       sodipodi:cx="317.14285"
       sodipodi:cy="41.647896"
       sodipodi:rx="2.1428571"
       sodipodi:ry="2.1428571"
       d="m 319.28571,41.647896 c 0,1.183467 -0.95939,2.142857 -2.14286,2.142857 -1.18346,0 -2.14285,-0.95939 -2.14285,-2.142857 0,-1.183467 0.95939,-2.142857 2.14285,-2.142857 1.18347,0 2.14286,0.95939 2.14286,2.142857 z"
       transform="matrix(0.17656445,0.2346788,-0.2346788,0.17656445,302.42162,326.46619)" />
    <rect
       style="fill:#ea4545;fill-opacity:0.55744683;stroke:#000000;stroke-width:0.80000025;stroke-linecap:square;stroke-linejoin:round;stroke-miterlimit:4;stroke-opacity:1;stroke-dasharray:none;stroke-dashoffset:0"
       id="rect2985-2-9-4-6-43"
       width="18.523724"
       height="22.540323"
       x="392.60931"
       y="344.2355"
       transform="matrix(0.99021226,0.13956962,-0.13847038,0.99036658,0,0)" />
    <path
       style="fill:#ea4545;fill-opacity:0.55744683;stroke:#000000;stroke-width:0.70869321;stroke-linecap:butt;stroke-linejoin:round;stroke-miterlimit:4;stroke-opacity:1;stroke-dasharray:none"
       d="m 338.9099,379.53834 27.34124,3.80185 -10.51554,14.44792 -10.53496,-1.46494 z"
       id="path3759-1-5-0-9-1"
       inkscape:connector-curvature="0"
       sodipodi:nodetypes="ccccc" />
    <path
       style="fill:none;stroke:#000000;stroke-width:1px;stroke-linecap:butt;stroke-linejoin:round;stroke-opacity:1"
       d="m 539.71823,289.67573 -315.31045,41.96348 255.676,-180.16368"
       id="path3847-1"
       inkscape:connector-curvature="0"
       sodipodi:nodetypes="ccc" />
    <path
       style="fill:#f6c5cf;fill-opacity:1;stroke:#000000;stroke-width:1;stroke-linecap:butt;stroke-linejoin:miter;stroke-miterlimit:4;stroke-opacity:1;stroke-dasharray:none"
       d="m 1126.7269,287.8065 c 8.6205,-5.60815 74.119,21.00253 42.8742,-22.7675 -31.2449,-43.77004 -104.6058,-14.74167 -105.5758,11.28925 -0.97,26.03092 19.8477,42.84868 38.7551,32.6913 15.031,-8.07489 7.4522,-10.48249 23.9465,-21.21305 z"
       id="path5931-5-1-8"
       inkscape:connector-curvature="0"
       sodipodi:nodetypes="szsss" />
    <path
       sodipodi:type="arc"
       style="fill:#ea4545;fill-opacity:0.55744683;stroke:#000000;stroke-width:3;stroke-linecap:butt;stroke-linejoin:round;stroke-miterlimit:4;stroke-opacity:1;stroke-dasharray:none;stroke-dashoffset:0"
       id="path3824-4-3-1-2-3-5"
       sodipodi:cx="317.14285"
       sodipodi:cy="41.647896"
       sodipodi:rx="2.1428571"
       sodipodi:ry="2.1428571"
       d="m 319.28571,41.647896 a 2.1428571,2.1428571 0 1 1 -4.28571,0 2.1428571,2.1428571 0 1 1 4.28571,0 z"
       transform="matrix(0.28807079,-0.05713461,0.05713461,0.28807079,1175.9869,365.96557)" />
    <rect
       style="fill:#ea4545;fill-opacity:0.55744683;stroke:#000000;stroke-width:0.80000025;stroke-linecap:square;stroke-linejoin:round;stroke-miterlimit:4;stroke-opacity:1;stroke-dasharray:none;stroke-dashoffset:0"
       id="rect2985-2-9-4-6-40"
       width="18.523724"
       height="22.540323"
       x="395.87146"
       y="1244.222"
       transform="matrix(0.55573457,-0.83135978,0.83197615,0.5548114,0,0)" />
    <path
       style="fill:#ea4545;fill-opacity:0.55744683;stroke:#000000;stroke-width:0.70869321;stroke-linecap:butt;stroke-linejoin:round;stroke-miterlimit:4;stroke-opacity:1;stroke-dasharray:none"
       d="m 1239.6391,356.14468 15.2979,-22.97761 8.448,15.74644 -5.8946,8.85358 z"
       id="path3759-1-5-0-9-65"
       inkscape:connector-curvature="0"
       sodipodi:nodetypes="ccccc" />
    <path
       sodipodi:type="arc"
       style="fill:#ea4545;fill-opacity:0.55744683;stroke:#000000;stroke-width:3;stroke-linecap:butt;stroke-linejoin:round;stroke-miterlimit:4;stroke-opacity:1;stroke-dasharray:none;stroke-dashoffset:0"
       id="path3824-4-3-1-2-3-0-5"
       sodipodi:cx="317.14285"
       sodipodi:cy="41.647896"
       sodipodi:rx="2.1428571"
       sodipodi:ry="2.1428571"
       d="m 319.28571,41.647896 a 2.1428571,2.1428571 0 1 1 -4.28571,0 2.1428571,2.1428571 0 1 1 4.28571,0 z"
       transform="matrix(0.16267296,-0.24451309,0.24451309,0.16267296,1209.0218,322.36854)" />
    <rect
       style="fill:#ea4545;fill-opacity:0.55744683;stroke:#000000;stroke-width:0.80000025;stroke-linecap:square;stroke-linejoin:round;stroke-miterlimit:4;stroke-opacity:1;stroke-dasharray:none;stroke-dashoffset:0"
       id="rect2985-2-9-4-6-1-7"
       width="18.523724"
       height="22.540323"
       x="-508.03549"
       y="1184.7708"
       transform="matrix(-0.19739933,-0.98032316,0.98010344,-0.19848739,0,0)" />
    <path
       style="fill:#ea4545;fill-opacity:0.55744683;stroke:#000000;stroke-width:0.70869321;stroke-linecap:butt;stroke-linejoin:round;stroke-miterlimit:4;stroke-opacity:1;stroke-dasharray:none"
       d="m 1246.9535,270.31826 -5.4994,-27.05094 17.1212,5.1171 2.1189,10.42311 z"
       id="path3759-1-5-0-9-0-6"
       inkscape:connector-curvature="0"
       sodipodi:nodetypes="ccccc" />
    <path
       sodipodi:type="arc"
       style="fill:#ea4545;fill-opacity:0.55744683;stroke:#000000;stroke-width:3;stroke-linecap:butt;stroke-linejoin:round;stroke-miterlimit:4;stroke-opacity:1;stroke-dasharray:none;stroke-dashoffset:0"
       id="path3824-4-3-1-2-3-1-3"
       sodipodi:cx="317.14285"
       sodipodi:cy="41.647896"
       sodipodi:rx="2.1428571"
       sodipodi:ry="2.1428571"
       d="m 319.28571,41.647896 a 2.1428571,2.1428571 0 1 1 -4.28571,0 2.1428571,2.1428571 0 1 1 4.28571,0 z"
       transform="matrix(-0.08804481,-0.28017362,0.28017362,-0.08804481,1186.239,260.22994)" />
    <rect
       style="fill:#ea4545;fill-opacity:0.55744683;stroke:#000000;stroke-width:0.80000025;stroke-linecap:square;stroke-linejoin:round;stroke-miterlimit:4;stroke-opacity:1;stroke-dasharray:none;stroke-dashoffset:0"
       id="rect2985-2-9-4-6-4-6"
       width="18.523724"
       height="22.540323"
       x="-1124.6362"
       y="380.78958"
       transform="matrix(-0.88673551,-0.46227712,0.46129254,-0.8872481,0,0)" />
    <path
       style="fill:#ea4545;fill-opacity:0.55744683;stroke:#000000;stroke-width:0.70869321;stroke-linecap:butt;stroke-linejoin:round;stroke-miterlimit:4;stroke-opacity:1;stroke-dasharray:none"
       d="m 1169.5716,198.01864 -24.5014,-12.71527 14.7372,-10.10617 9.4407,4.89939 z"
       id="path3759-1-5-0-9-6-9"
       inkscape:connector-curvature="0"
       sodipodi:nodetypes="ccccc" />
    <path
       sodipodi:type="arc"
       style="fill:#ea4545;fill-opacity:0.55744683;stroke:#000000;stroke-width:3;stroke-linecap:butt;stroke-linejoin:round;stroke-miterlimit:4;stroke-opacity:1;stroke-dasharray:none;stroke-dashoffset:0"
       id="path3824-4-3-1-2-3-2-8"
       sodipodi:cx="317.14285"
       sodipodi:cy="41.647896"
       sodipodi:rx="2.1428571"
       sodipodi:ry="2.1428571"
       d="m 319.28571,41.647896 a 2.1428571,2.1428571 0 1 1 -4.28571,0 2.1428571,2.1428571 0 1 1 4.28571,0 z"
       transform="matrix(-0.28994428,0.04670607,-0.04670607,-0.28994428,1087.6894,187.1279)" />
    <rect
       style="fill:#ea4545;fill-opacity:0.55744683;stroke:#000000;stroke-width:0.80000025;stroke-linecap:square;stroke-linejoin:round;stroke-miterlimit:4;stroke-opacity:1;stroke-dasharray:none;stroke-dashoffset:0"
       id="rect2985-2-9-4-6-3-3"
       width="18.523724"
       height="22.540323"
       x="-435.97845"
       y="-928.23309"
       transform="matrix(-0.5853619,0.81077213,-0.8114214,-0.58446156,0,0)" />
    <path
       style="fill:#ea4545;fill-opacity:0.55744683;stroke:#000000;stroke-width:0.70869321;stroke-linecap:butt;stroke-linejoin:round;stroke-miterlimit:4;stroke-opacity:1;stroke-dasharray:none"
       d="m 1023.7244,194.64632 -16.1168,22.41083 -7.87448,-16.04093 6.21008,-8.63519 z"
       id="path3759-1-5-0-9-3-4"
       inkscape:connector-curvature="0"
       sodipodi:nodetypes="ccccc" />
    <path
       sodipodi:type="arc"
       style="fill:#ea4545;fill-opacity:0.55744683;stroke:#000000;stroke-width:3;stroke-linecap:butt;stroke-linejoin:round;stroke-miterlimit:4;stroke-opacity:1;stroke-dasharray:none;stroke-dashoffset:0"
       id="path3824-4-3-1-2-3-4-7"
       sodipodi:cx="317.14285"
       sodipodi:cy="41.647896"
       sodipodi:rx="2.1428571"
       sodipodi:ry="2.1428571"
       d="m 319.28571,41.647896 a 2.1428571,2.1428571 0 1 1 -4.28571,0 2.1428571,2.1428571 0 1 1 4.28571,0 z"
       transform="matrix(-0.06996492,0.28522632,-0.28522632,-0.06996492,1009.899,239.66001)" />
    <rect
       style="fill:#ea4545;fill-opacity:0.55744683;stroke:#000000;stroke-width:0.80000025;stroke-linecap:square;stroke-linejoin:round;stroke-miterlimit:4;stroke-opacity:1;stroke-dasharray:none;stroke-dashoffset:0"
       id="rect2985-2-9-4-6-41-2"
       width="18.523724"
       height="22.540323"
       x="777.35968"
       y="-676.02289"
       transform="matrix(0.51859682,0.85501891,-0.85444273,0.5195456,0,0)" />
    <path
       style="fill:#ea4545;fill-opacity:0.55744683;stroke:#000000;stroke-width:0.70869321;stroke-linecap:butt;stroke-linejoin:round;stroke-miterlimit:4;stroke-opacity:1;stroke-dasharray:none"
       d="m 991.89862,301.49878 14.35938,23.57552 -17.84138,1.00159 -5.53286,-9.08399 z"
       id="path3759-1-5-0-9-30-0"
       inkscape:connector-curvature="0"
       sodipodi:nodetypes="ccccc" />
    <path
       sodipodi:type="arc"
       style="fill:#ea4545;fill-opacity:0.55744683;stroke:#000000;stroke-width:3;stroke-linecap:butt;stroke-linejoin:round;stroke-miterlimit:4;stroke-opacity:1;stroke-dasharray:none;stroke-dashoffset:0"
       id="path3824-4-3-1-2-3-9-9"
       sodipodi:cx="317.14285"
       sodipodi:cy="41.647896"
       sodipodi:rx="2.1428571"
       sodipodi:ry="2.1428571"
       d="m 319.28571,41.647896 a 2.1428571,2.1428571 0 1 1 -4.28571,0 2.1428571,2.1428571 0 1 1 4.28571,0 z"
       transform="matrix(0.17656445,0.2346788,-0.2346788,0.17656445,1053.9369,322.05341)" />
    <rect
       style="fill:#ea4545;fill-opacity:0.55744683;stroke:#000000;stroke-width:0.80000025;stroke-linecap:square;stroke-linejoin:round;stroke-miterlimit:4;stroke-opacity:1;stroke-dasharray:none;stroke-dashoffset:0"
       id="rect2985-2-9-4-6-43-1"
       width="18.523724"
       height="22.540323"
       x="1136.2743"
       y="234.97714"
       transform="matrix(0.99021226,0.13956962,-0.13847038,0.99036658,0,0)" />
    <path
       style="fill:#ea4545;fill-opacity:0.55744683;stroke:#000000;stroke-width:0.70869321;stroke-linecap:butt;stroke-linejoin:round;stroke-miterlimit:4;stroke-opacity:1;stroke-dasharray:none"
       d="m 1090.4252,375.12556 27.3412,3.80185 -10.5155,14.44792 -10.535,-1.46494 z"
       id="path3759-1-5-0-9-1-2"
       inkscape:connector-curvature="0"
       sodipodi:nodetypes="ccccc" />
    <path
       style="fill:none;stroke:#000000;stroke-width:1px;stroke-linecap:butt;stroke-linejoin:round;stroke-opacity:1"
       d="M 1090.3423,330.14585 993.73944,189.85303 1180.5186,258.83972"
       id="path3847-9"
       inkscape:connector-curvature="0" />
    <path
       style="fill:none;stroke:#000000;stroke-width:1px;stroke-linecap:butt;stroke-linejoin:round;stroke-opacity:1"
       d="M 1185.8853,300.08379 975.92304,327.22643 1141.8729,211.15288"
       id="path3847-1-4"
       inkscape:connector-curvature="0"
       sodipodi:nodetypes="ccc" />
    <path
       style="fill:none;stroke:#000000;stroke-width:1px;stroke-linecap:butt;stroke-linejoin:round;stroke-opacity:1"
       d="M 1200.1965,253.95302 1100.4406,403.86885 1042.63,221.94176"
       id="path3847-1-9-0"
       inkscape:connector-curvature="0"
       sodipodi:nodetypes="ccc" />
    <path
       style="fill:none;stroke:#000000;stroke-width:1px;stroke-linecap:butt;stroke-linejoin:round;stroke-opacity:1"
       d="m 1138.4119,232.6559 131.3687,127.25655 -221.5239,-57.30104"
       id="path3847-1-9-2-2"
       inkscape:connector-curvature="0"
       sodipodi:nodetypes="ccc" />
    <path
       style="fill:none;stroke:#000000;stroke-width:1px;stroke-linecap:butt;stroke-linejoin:round;stroke-opacity:1"
       d="m 1072.2544,238.48916 198.7381,12.98421 -149.8978,59.37468"
       id="path3847-1-9-2-1-1"
       inkscape:connector-curvature="0"
       sodipodi:nodetypes="ccc" />
    <path
       style="fill:none;stroke:#000000;stroke-width:1px;stroke-linecap:butt;stroke-linejoin:round;stroke-opacity:1"
       d="m 1036.687,293.55997 133.3289,-125.72801 10.2547,139.34572"
       id="path3847-1-9-2-1-3-1"
       inkscape:connector-curvature="0"
       sodipodi:nodetypes="ccc" />
    <path
       style="opacity:0.46899229;fill:#00e428;fill-opacity:1;stroke:#000000;stroke-width:1px;stroke-linecap:butt;stroke-linejoin:miter;stroke-opacity:1"
       d="m 1058.9734,272.57711 13.8938,-13.36187 26.8929,-18.64437 37.3878,2.12431 18.5523,7.08103 21.6679,20.53497 1.2746,16.00312 -1.4162,2.26593 -46.8764,18.55228 -42.4861,5.66482 -11.3297,-3.11565 -11.0464,-15.15339 z"
       id="path4050-7"
       inkscape:connector-curvature="0" />
  </g>
</svg>
