<?xml version="1.0" encoding="UTF-8" standalone="no"?>
<!-- Created with Inkscape (http://www.inkscape.org/) -->

<svg
   xmlns:dc="http://purl.org/dc/elements/1.1/"
   xmlns:cc="http://creativecommons.org/ns#"
   xmlns:rdf="http://www.w3.org/1999/02/22-rdf-syntax-ns#"
   xmlns:svg="http://www.w3.org/2000/svg"
   xmlns="http://www.w3.org/2000/svg"
   xmlns:sodipodi="http://sodipodi.sourceforge.net/DTD/sodipodi-0.dtd"
   xmlns:inkscape="http://www.inkscape.org/namespaces/inkscape"
   width="162.9344"
   height="147.71135"
   id="svg2"
   version="1.1"
   inkscape:version="0.48.4 r9939"
   sodipodi:docname="maniftest.svg">
  <defs
     id="defs4" />
  <sodipodi:namedview
     id="base"
     pagecolor="#ffffff"
     bordercolor="#666666"
     borderopacity="1.0"
     inkscape:pageopacity="0.0"
     inkscape:pageshadow="2"
     inkscape:zoom="0.62412109"
     inkscape:cx="-394.39636"
     inkscape:cy="-215.10747"
     inkscape:document-units="px"
     inkscape:current-layer="layer1"
     showgrid="false"
     inkscape:window-width="1869"
     inkscape:window-height="1056"
     inkscape:window-x="51"
     inkscape:window-y="24"
     inkscape:window-maximized="1"
     fit-margin-top="0"
     fit-margin-left="0"
     fit-margin-right="0"
     fit-margin-bottom="0" />
  <metadata
     id="metadata7">
    <rdf:RDF>
      <cc:Work
         rdf:about="">
        <dc:format>image/svg+xml</dc:format>
        <dc:type
           rdf:resource="http://purl.org/dc/dcmitype/StillImage" />
        <dc:title></dc:title>
      </cc:Work>
    </rdf:RDF>
  </metadata>
  <g
     inkscape:label="Livello 1"
     inkscape:groupmode="layer"
     id="layer1"
     transform="translate(-406.84031,-83.464886)">
    <path
       style="fill:none;stroke:#000000;stroke-width:1;stroke-linecap:butt;stroke-linejoin:miter;stroke-miterlimit:4;stroke-opacity:1;stroke-dasharray:none;stroke-dashoffset:0"
       d="m 131.14709,433.27652 74.04015,59.6695 79.03863,-49.0477 -64.35557,-90.28524 z"
       id="path2987"
       inkscape:connector-curvature="0" />
    <path
       style="opacity:0.25581396;fill:#008000;fill-opacity:1;stroke:none"
       d="m 283.8075,444.10209 -78.17452,48.71745 -74.49239,-60.04709 z"
       id="path3837"
       inkscape:connector-curvature="0"
       sodipodi:nodetypes="cccc" />
    <path
       style="fill:none;stroke:#ff0000;stroke-width:2.5;stroke-linecap:butt;stroke-linejoin:miter;stroke-miterlimit:4;stroke-opacity:1;stroke-dasharray:5, 2.5;stroke-dashoffset:0"
       d="m 131.99032,432.63083 151.39232,11.32964"
       id="path3952"
       inkscape:connector-curvature="0" />
    <path
       style="fill:none;stroke:#000000;stroke-width:1;stroke-linecap:round;stroke-linejoin:miter;stroke-miterlimit:4;stroke-opacity:1;stroke-dasharray:none;stroke-dashoffset:0"
       d="M 219.83275,354.43495 204.87484,492.0088"
       id="path2989"
       inkscape:connector-curvature="0"
       sodipodi:nodetypes="cc" />
    <path
       style="opacity:0.25581396;fill:#008000;fill-opacity:1;stroke:none"
       d="m 502.87571,375.63712 -8.92209,84.2642 -78.74101,-5.66482 z"
       id="path3837-1"
       inkscape:connector-curvature="0"
       sodipodi:nodetypes="cccc" />
    <path
       style="fill:none;stroke:#ff0000;stroke-width:2.5;stroke-linecap:butt;stroke-linejoin:miter;stroke-miterlimit:4;stroke-opacity:1;stroke-dasharray:5, 2.5;stroke-dashoffset:0"
       d="m 415.17602,454.16798 151.51676,11.24661"
       id="path2991-0"
       inkscape:connector-curvature="0" />
    <path
       style="fill:#00c000;fill-opacity:1;stroke:none"
       d="m 503.17767,375.41614 64.8622,90.21227 -79.73235,49.0007 z"
       id="path3954"
       inkscape:connector-curvature="0" />
    <path
       style="fill:none;stroke:#000000;stroke-width:1;stroke-linecap:butt;stroke-linejoin:miter;stroke-miterlimit:4;stroke-opacity:1;stroke-dasharray:none;stroke-dashoffset:0"
       d="m 414.55121,455.1052 74.04015,59.6695 79.03863,-49.0477 -64.35557,-90.28524 z"
       id="path2987-8"
       inkscape:connector-curvature="0" />
    <path
       style="fill:none;stroke:#000000;stroke-width:1;stroke-linecap:round;stroke-linejoin:miter;stroke-miterlimit:4;stroke-opacity:1;stroke-dasharray:none;stroke-dashoffset:0"
       d="M 503.24787,376.38967 488.5622,514.22694"
       id="path2989-9"
       inkscape:connector-curvature="0"
       sodipodi:nodetypes="cc" />
    <path
       style="fill:none;stroke:#000000;stroke-width:1;stroke-linecap:butt;stroke-linejoin:miter;stroke-miterlimit:4;stroke-opacity:1;stroke-dasharray:none;stroke-dashoffset:0"
       d="m 138.16253,726.68711 74.04015,59.6695 79.03863,-49.0477 -64.35557,-90.28524 z"
       id="path2987-3"
       inkscape:connector-curvature="0" />
    <path
       style="fill:none;stroke:#000000;stroke-width:1;stroke-linecap:butt;stroke-linejoin:miter;stroke-miterlimit:4;stroke-opacity:1;stroke-dasharray:none;stroke-dashoffset:0"
       d="M 226.88574,648.32121 211.89028,785.41939"
       id="path2989-04"
       inkscape:connector-curvature="0"
       sodipodi:nodetypes="cc" />
    <path
       style="fill:none;stroke:#000000;stroke-width:1;stroke-linecap:butt;stroke-linejoin:miter;stroke-miterlimit:4;stroke-opacity:1;stroke-dasharray:2, 1;stroke-dashoffset:0"
       d="M 138.78734,725.74989 290.3041,736.9965"
       id="path2991-5"
       inkscape:connector-curvature="0" />
    <path
       style="fill:none;stroke:#ff0000;stroke-width:2.5;stroke-linecap:round;stroke-linejoin:miter;stroke-miterlimit:4;stroke-opacity:1;stroke-dasharray:none"
       d="m 131.14059,433.05569 73.21781,60.33034 80.15721,-49.7088"
       id="path3950"
       inkscape:connector-curvature="0" />
    <path
       sodipodi:type="arc"
       style="fill:#000091;fill-opacity:1;fill-rule:nonzero;stroke:none"
       id="path3905"
       sodipodi:cx="129.29953"
       sodipodi:cy="431.49786"
       sodipodi:rx="4.956718"
       sodipodi:ry="4.956718"
       d="m 134.25625,431.49786 c 0,2.73752 -2.2192,4.95672 -4.95672,4.95672 -2.73752,0 -4.95672,-2.2192 -4.95672,-4.95672 0,-2.73752 2.2192,-4.95671 4.95672,-4.95671 2.73752,0 4.95672,2.21919 4.95672,4.95671 z"
       transform="translate(1.6994461,1.5578256)" />
    <path
       sodipodi:type="arc"
       style="fill:#000091;fill-opacity:1;fill-rule:nonzero;stroke:none"
       id="path3905-6"
       sodipodi:cx="129.29953"
       sodipodi:cy="431.49786"
       sodipodi:rx="4.956718"
       sodipodi:ry="4.956718"
       d="m 134.25625,431.49786 c 0,2.73752 -2.2192,4.95672 -4.95672,4.95672 -2.73752,0 -4.95672,-2.2192 -4.95672,-4.95672 0,-2.73752 2.2192,-4.95671 4.95672,-4.95671 2.73752,0 4.95672,2.21919 4.95672,4.95671 z"
       transform="translate(76.19183,61.038442)" />
    <path
       sodipodi:type="arc"
       style="fill:#000091;fill-opacity:1;fill-rule:nonzero;stroke:none"
       id="path3905-3"
       sodipodi:cx="129.29953"
       sodipodi:cy="431.49786"
       sodipodi:rx="4.956718"
       sodipodi:ry="4.956718"
       d="m 134.25625,431.49786 c 0,2.73752 -2.2192,4.95672 -4.95672,4.95672 -2.73752,0 -4.95672,-2.2192 -4.95672,-4.95672 0,-2.73752 2.2192,-4.95671 4.95672,-4.95671 2.73752,0 4.95672,2.21919 4.95672,4.95671 z"
       transform="translate(154.79121,12.037745)" />
    <path
       style="fill:none;stroke:#ff0000;stroke-width:2.5;stroke-linecap:round;stroke-linejoin:round;stroke-miterlimit:4;stroke-opacity:1;stroke-dasharray:none"
       d="m 488.09509,514.06262 78.95344,-48.64664 -63.23356,-89.15011 z"
       id="path3950-1"
       inkscape:connector-curvature="0"
       sodipodi:nodetypes="cccc" />
    <path
       style="fill:none;stroke:#ff0000;stroke-width:2.5;stroke-linecap:round;stroke-linejoin:miter;stroke-miterlimit:4;stroke-opacity:1;stroke-dasharray:none"
       d="m 414.73566,454.01552 88.83148,-78.31614"
       id="path3950-3"
       inkscape:connector-curvature="0"
       sodipodi:nodetypes="cc" />
    <path
       sodipodi:type="arc"
       style="fill:#000091;fill-opacity:1;fill-rule:nonzero;stroke:none"
       id="path3905-3-3"
       sodipodi:cx="129.29953"
       sodipodi:cy="431.49786"
       sodipodi:rx="4.956718"
       sodipodi:ry="4.956718"
       d="m 134.25625,431.49786 c 0,2.73752 -2.2192,4.95672 -4.95672,4.95672 -2.73752,0 -4.95672,-2.2192 -4.95672,-4.95672 0,-2.73752 2.2192,-4.95671 4.95672,-4.95671 2.73752,0 4.95672,2.21919 4.95672,4.95671 z"
       transform="translate(358.88698,82.707535)" />
    <path
       sodipodi:type="arc"
       style="fill:#000091;fill-opacity:1;fill-rule:nonzero;stroke:none"
       id="path3905-3-2"
       sodipodi:cx="129.29953"
       sodipodi:cy="431.49786"
       sodipodi:rx="4.956718"
       sodipodi:ry="4.956718"
       d="m 134.25625,431.49786 c 0,2.73752 -2.2192,4.95672 -4.95672,4.95672 -2.73752,0 -4.95672,-2.2192 -4.95672,-4.95672 0,-2.73752 2.2192,-4.95671 4.95672,-4.95671 2.73752,0 4.95672,2.21919 4.95672,4.95671 z"
       transform="translate(438.24467,34.130545)" />
    <path
       sodipodi:type="arc"
       style="fill:#000091;fill-opacity:1;fill-rule:nonzero;stroke:none"
       id="path3905-3-29"
       sodipodi:cx="129.29953"
       sodipodi:cy="431.49786"
       sodipodi:rx="4.956718"
       sodipodi:ry="4.956718"
       d="m 134.25625,431.49786 c 0,2.73752 -2.2192,4.95672 -4.95672,4.95672 -2.73752,0 -4.95672,-2.2192 -4.95672,-4.95672 0,-2.73752 2.2192,-4.95671 4.95672,-4.95671 2.73752,0 4.95672,2.21919 4.95672,4.95671 z"
       transform="translate(374.303,-55.090377)" />
    <path
       sodipodi:type="arc"
       style="fill:#000091;fill-opacity:1;fill-rule:nonzero;stroke:none"
       id="path3905-3-7"
       sodipodi:cx="129.29953"
       sodipodi:cy="431.49786"
       sodipodi:rx="4.956718"
       sodipodi:ry="4.956718"
       d="m 134.25625,431.49786 c 0,2.73752 -2.2192,4.95672 -4.95672,4.95672 -2.73752,0 -4.95672,-2.2192 -4.95672,-4.95672 0,-2.73752 2.2192,-4.95671 4.95672,-4.95671 2.73752,0 4.95672,2.21919 4.95672,4.95671 z"
       transform="translate(285.2237,22.659283)" />
    <path
       style="opacity:0.25581396;fill:#008000;fill-opacity:1;stroke:none"
       d="M 239.563,177.26396 161.38848,225.98141 86.896087,165.93432 z"
       id="path3837-7"
       inkscape:connector-curvature="0"
       sodipodi:nodetypes="cccc" />
    <path
       style="opacity:0.25581396;fill:#008000;fill-opacity:1;stroke:none"
       d="M 176.12179,87.651237 167.1997,171.91544 88.458686,166.25062 z"
       id="path3837-1-7"
       inkscape:connector-curvature="0"
       sodipodi:nodetypes="cccc" />
    <path
       style="fill:none;stroke:#ff0000;stroke-width:2.5;stroke-linecap:butt;stroke-linejoin:miter;stroke-miterlimit:4;stroke-opacity:1;stroke-dasharray:5, 2.5;stroke-dashoffset:0"
       d="M 88.422096,166.1821 239.93886,177.42871"
       id="path2991-0-3"
       inkscape:connector-curvature="0" />
    <path
       style="fill:#00c000;fill-opacity:1;stroke:none"
       d="m 176.42375,87.430257 64.8622,90.212273 -79.73235,49.0007 z"
       id="path3954-9"
       inkscape:connector-curvature="0" />
    <path
       style="fill:none;stroke:#000000;stroke-width:1;stroke-linecap:butt;stroke-linejoin:miter;stroke-miterlimit:4;stroke-opacity:1;stroke-dasharray:none;stroke-dashoffset:0"
       d="m 87.797286,167.11932 74.040154,59.6695 79.03863,-49.0477 -64.35557,-90.285243 z"
       id="path2987-8-0"
       inkscape:connector-curvature="0" />
    <path
       style="fill:none;stroke:#000000;stroke-width:1;stroke-linecap:round;stroke-linejoin:miter;stroke-miterlimit:4;stroke-opacity:1;stroke-dasharray:none;stroke-dashoffset:0"
       d="M 176.49395,88.403787 161.80828,226.24106"
       id="path2989-9-3"
       inkscape:connector-curvature="0"
       sodipodi:nodetypes="cc" />
    <path
       style="fill:none;stroke:#ff0000;stroke-width:2.5;stroke-linecap:round;stroke-linejoin:round;stroke-miterlimit:4;stroke-opacity:1;stroke-dasharray:none"
       d="M 161.34117,226.07674 240.29461,177.4301 177.06105,88.279987 z"
       id="path3950-1-7"
       inkscape:connector-curvature="0"
       sodipodi:nodetypes="cccc" />
    <path
       style="fill:none;stroke:#ff0000;stroke-width:2.5;stroke-linecap:round;stroke-linejoin:miter;stroke-miterlimit:4;stroke-opacity:1;stroke-dasharray:none"
       d="m 87.870288,166.92004 73.409792,59.27735"
       id="path3950-3-0-5-8"
       inkscape:connector-curvature="0"
       sodipodi:nodetypes="cc" />
    <path
       style="fill:none;stroke:#ff0000;stroke-width:2.5;stroke-linecap:round;stroke-linejoin:miter;stroke-miterlimit:4;stroke-opacity:1;stroke-dasharray:none"
       d="M 87.981736,166.02964 176.81322,87.713497"
       id="path3950-3-4"
       inkscape:connector-curvature="0"
       sodipodi:nodetypes="cc" />
    <path
       sodipodi:type="arc"
       style="fill:#000091;fill-opacity:1;fill-rule:nonzero;stroke:none"
       id="path3905-3-3-9"
       sodipodi:cx="129.29953"
       sodipodi:cy="431.49786"
       sodipodi:rx="4.956718"
       sodipodi:ry="4.956718"
       d="m 134.25625,431.49786 c 0,2.73752 -2.2192,4.95672 -4.95672,4.95672 -2.73752,0 -4.95672,-2.2192 -4.95672,-4.95672 0,-2.73752 2.2192,-4.95671 4.95672,-4.95671 2.73752,0 4.95672,2.21919 4.95672,4.95671 z"
       transform="translate(32.133056,-205.27834)" />
    <path
       sodipodi:type="arc"
       style="fill:#000091;fill-opacity:1;fill-rule:nonzero;stroke:none"
       id="path3905-3-2-6"
       sodipodi:cx="129.29953"
       sodipodi:cy="431.49786"
       sodipodi:rx="4.956718"
       sodipodi:ry="4.956718"
       d="m 134.25625,431.49786 c 0,2.73752 -2.2192,4.95672 -4.95672,4.95672 -2.73752,0 -4.95672,-2.2192 -4.95672,-4.95672 0,-2.73752 2.2192,-4.95671 4.95672,-4.95671 2.73752,0 4.95672,2.21919 4.95672,4.95671 z"
       transform="translate(111.49075,-253.85533)" />
    <path
       sodipodi:type="arc"
       style="fill:#000091;fill-opacity:1;fill-rule:nonzero;stroke:none"
       id="path3905-3-29-0"
       sodipodi:cx="129.29953"
       sodipodi:cy="431.49786"
       sodipodi:rx="4.956718"
       sodipodi:ry="4.956718"
       d="m 134.25625,431.49786 c 0,2.73752 -2.2192,4.95672 -4.95672,4.95672 -2.73752,0 -4.95672,-2.2192 -4.95672,-4.95672 0,-2.73752 2.2192,-4.95671 4.95672,-4.95671 2.73752,0 4.95672,2.21919 4.95672,4.95671 z"
       transform="translate(47.549076,-343.07626)" />
    <path
       sodipodi:type="arc"
       style="fill:#000091;fill-opacity:1;fill-rule:nonzero;stroke:none"
       id="path3905-3-7-2"
       sodipodi:cx="129.29953"
       sodipodi:cy="431.49786"
       sodipodi:rx="4.956718"
       sodipodi:ry="4.956718"
       d="m 134.25625,431.49786 c 0,2.73752 -2.2192,4.95672 -4.95672,4.95672 -2.73752,0 -4.95672,-2.2192 -4.95672,-4.95672 0,-2.73752 2.2192,-4.95671 4.95672,-4.95671 2.73752,0 4.95672,2.21919 4.95672,4.95671 z"
       transform="translate(-41.530222,-265.3266)" />
    <path
       style="opacity:0.25581396;fill:#008000;fill-opacity:1;stroke:none"
       d="m 500.14951,87.651237 -8.92209,84.264203 -78.74101,-5.66482 z"
       id="path3837-1-6"
       inkscape:connector-curvature="0"
       sodipodi:nodetypes="cccc" />
    <path
       style="fill:none;stroke:#ff0000;stroke-width:2.5;stroke-linecap:butt;stroke-linejoin:miter;stroke-miterlimit:4;stroke-opacity:1;stroke-dasharray:5, 2.5;stroke-dashoffset:0"
       d="m 412.44982,166.1821 151.51676,11.24661"
       id="path2991-0-7"
       inkscape:connector-curvature="0" />
    <path
       style="fill:#00c000;fill-opacity:1;stroke:none"
       d="m 501.7447,88.097584 -89.55495,77.794806 73.08255,59.21507 z"
       id="path3954-1-6"
       inkscape:connector-curvature="0"
       sodipodi:nodetypes="cccc" />
    <path
       style="fill:#00c000;fill-opacity:1;stroke:none"
       d="m 500.45147,87.430257 64.8622,90.212273 -79.73235,49.0007 z"
       id="path3954-1"
       inkscape:connector-curvature="0" />
    <path
       style="fill:none;stroke:#000000;stroke-width:1;stroke-linecap:butt;stroke-linejoin:miter;stroke-miterlimit:4;stroke-opacity:1;stroke-dasharray:none;stroke-dashoffset:0"
       d="m 411.82501,167.11932 74.04015,59.6695 79.03863,-49.0477 -64.35557,-90.285243 z"
       id="path2987-8-1"
       inkscape:connector-curvature="0" />
    <path
       style="fill:none;stroke:#000000;stroke-width:1;stroke-linecap:round;stroke-linejoin:miter;stroke-miterlimit:4;stroke-opacity:1;stroke-dasharray:none;stroke-dashoffset:0"
       d="M 500.52167,88.403787 485.836,226.24106"
       id="path2989-9-5"
       inkscape:connector-curvature="0"
       sodipodi:nodetypes="cc" />
    <path
       style="fill:none;stroke:#ff0000;stroke-width:2.5;stroke-linecap:round;stroke-linejoin:round;stroke-miterlimit:4;stroke-opacity:1;stroke-dasharray:none"
       d="M 485.36889,226.07674 564.32233,177.4301 501.08877,88.279987 z"
       id="path3950-1-3"
       inkscape:connector-curvature="0"
       sodipodi:nodetypes="cccc" />
    <path
       style="fill:none;stroke:#ff0000;stroke-width:2.5;stroke-linecap:round;stroke-linejoin:miter;stroke-miterlimit:4;stroke-opacity:1;stroke-dasharray:none"
       d="M 412.00946,166.02964 500.84094,87.713497"
       id="path3950-3-0"
       inkscape:connector-curvature="0"
       sodipodi:nodetypes="cc" />
    <path
       style="fill:none;stroke:#ff0000;stroke-width:2.5;stroke-linecap:round;stroke-linejoin:miter;stroke-miterlimit:4;stroke-opacity:1;stroke-dasharray:none"
       d="m 411.82585,166.21905 73.40979,59.27735"
       id="path3950-3-0-5"
       inkscape:connector-curvature="0"
       sodipodi:nodetypes="cc" />
    <path
       sodipodi:type="arc"
       style="fill:#000091;fill-opacity:1;fill-rule:nonzero;stroke:none"
       id="path3905-3-3-5"
       sodipodi:cx="129.29953"
       sodipodi:cy="431.49786"
       sodipodi:rx="4.956718"
       sodipodi:ry="4.956718"
       d="m 134.25625,431.49786 c 0,2.73752 -2.2192,4.95672 -4.95672,4.95672 -2.73752,0 -4.95672,-2.2192 -4.95672,-4.95672 0,-2.73752 2.2192,-4.95671 4.95672,-4.95671 2.73752,0 4.95672,2.21919 4.95672,4.95671 z"
       transform="translate(356.16078,-205.27834)" />
    <path
       sodipodi:type="arc"
       style="fill:#000091;fill-opacity:1;fill-rule:nonzero;stroke:none"
       id="path3905-3-2-1"
       sodipodi:cx="129.29953"
       sodipodi:cy="431.49786"
       sodipodi:rx="4.956718"
       sodipodi:ry="4.956718"
       d="m 134.25625,431.49786 c 0,2.73752 -2.2192,4.95672 -4.95672,4.95672 -2.73752,0 -4.95672,-2.2192 -4.95672,-4.95672 0,-2.73752 2.2192,-4.95671 4.95672,-4.95671 2.73752,0 4.95672,2.21919 4.95672,4.95671 z"
       transform="translate(435.51847,-253.85533)" />
    <path
       sodipodi:type="arc"
       style="fill:#000091;fill-opacity:1;fill-rule:nonzero;stroke:none"
       id="path3905-3-29-9"
       sodipodi:cx="129.29953"
       sodipodi:cy="431.49786"
       sodipodi:rx="4.956718"
       sodipodi:ry="4.956718"
       d="m 134.25625,431.49786 c 0,2.73752 -2.2192,4.95672 -4.95672,4.95672 -2.73752,0 -4.95672,-2.2192 -4.95672,-4.95672 0,-2.73752 2.2192,-4.95671 4.95672,-4.95671 2.73752,0 4.95672,2.21919 4.95672,4.95671 z"
       transform="translate(371.5768,-343.07626)" />
    <path
       sodipodi:type="arc"
       style="fill:#000091;fill-opacity:1;fill-rule:nonzero;stroke:none"
       id="path3905-3-7-1"
       sodipodi:cx="129.29953"
       sodipodi:cy="431.49786"
       sodipodi:rx="4.956718"
       sodipodi:ry="4.956718"
       d="m 134.25625,431.49786 c 0,2.73752 -2.2192,4.95672 -4.95672,4.95672 -2.73752,0 -4.95672,-2.2192 -4.95672,-4.95672 0,-2.73752 2.2192,-4.95671 4.95672,-4.95671 2.73752,0 4.95672,2.21919 4.95672,4.95671 z"
       transform="translate(282.4975,-265.3266)" />
  </g>
</svg>
